<svg width="15" height="12" viewBox="0 0 15 12" fill="none" xmlns="http://www.w3.org/2000/svg">
<path d="M15 3V4.125C15 4.26306 14.8881 4.375 14.75 4.375H0.25C0.111937 4.375 0 4.26306 0 4.125V3C0 2.86194 0.111937 2.75 0.25 2.75H14.75C14.8881 2.75 15 2.86194 15 3ZM15 2V1.25C15 0.559656 14.4403 0 13.75 0H1.25C0.559656 0 0 0.559656 0 1.25V2C0 2.13806 0.111937 2.25 0.25 2.25H14.75C14.8881 2.25 15 2.13806 15 2ZM12.0439 6.95041C11.8879 6.97866 11.7978 7.14025 11.8538 7.28866C11.9654 7.58491 11.9655 7.91491 11.8537 8.21156C11.7988 8.357 11.8835 8.51931 12.0362 8.54828C12.5103 8.63825 12.9448 8.2975 12.9949 7.84166C13.0551 7.29538 12.5729 6.85469 12.0439 6.95041ZM0.25 4.875H14.75C14.8881 4.875 15 4.98694 15 5.125V9.8125C15 10.5028 14.4403 11.0625 13.75 11.0625H1.25C0.559656 11.0625 0 10.5028 0 9.8125V5.125C0 4.98694 0.111937 4.875 0.25 4.875ZM4.625 8.53125C4.625 8.39319 4.51306 8.28125 4.375 8.28125H2.28125C2.14319 8.28125 2.03125 8.39319 2.03125 8.53125C2.03125 8.66931 2.14319 8.78125 2.28125 8.78125H4.375C4.51306 8.78125 4.625 8.66931 4.625 8.53125ZM4.625 6.96875C4.625 6.83069 4.51306 6.71875 4.375 6.71875H2.28125C2.14319 6.71875 2.03125 6.83069 2.03125 6.96875C2.03125 7.10681 2.14319 7.21875 2.28125 7.21875H4.375C4.51306 7.21875 4.625 7.10681 4.625 6.96875ZM13.5 7.75C13.5 6.67606 12.2726 6.05525 11.4062 6.69606C10.5454 6.05631 9.3125 6.67244 9.3125 7.75C9.3125 8.82706 10.5449 9.44406 11.4062 8.80394C12.2671 9.44369 13.5 8.82756 13.5 7.75Z" fill="#62B145"/>
</svg>
