<svg width="15" height="15" viewBox="0 0 15 15" fill="none" xmlns="http://www.w3.org/2000/svg">
<path d="M7.46041 11.8469C7.36232 11.9841 7.25313 12.1141 7.13278 12.2345C6.5491 12.8183 5.77302 13.1399 4.94755 13.1399C4.12208 13.1399 3.34604 12.8183 2.76236 12.2345C1.55755 11.0293 1.55755 9.06826 2.76236 7.86308C2.88359 7.74179 3.01293 7.6321 3.14917 7.53407C2.84117 7.04716 2.58104 6.56021 2.38179 6.09149C2.37461 6.07459 2.36793 6.05786 2.3609 6.04102C2.01628 6.24495 1.6973 6.49242 1.40717 6.78261C-0.469058 8.65945 -0.469058 11.7133 1.40717 13.5902C2.31611 14.4994 3.5246 15.0001 4.81006 15.0001C6.09549 15.0001 7.30399 14.4994 8.21292 13.5902C8.49907 13.3039 8.74745 12.9821 8.95264 12.6354C8.93615 12.6286 8.91977 12.622 8.90319 12.615C8.43441 12.4155 7.94738 12.1552 7.46041 11.8469Z" fill="#FA00FF"/>
<path d="M11.6703 7.68614C10.9558 7.76993 10.3009 8.07962 9.81053 8.57008L9.79114 8.58956C9.5509 8.82992 9.23238 8.96196 8.89357 8.96201C8.89357 8.96201 8.89339 8.96201 8.89333 8.96201C8.55443 8.96201 8.23591 8.83003 7.99635 8.59035L6.36481 6.95828C5.87057 6.46381 5.8706 5.65938 6.36484 5.16499L6.45607 5.07376C6.91714 4.61251 7.21398 3.9964 7.3055 3.32155C6.68071 2.94546 6.06648 2.6616 5.51192 2.49687C4.22057 2.11328 3.54352 2.43883 3.20294 2.7795C2.61217 3.37044 2.59825 4.4285 3.16371 5.75878C3.66035 6.92714 4.57442 8.22666 5.67156 9.32412C6.76869 10.4216 8.0678 11.336 9.23581 11.8328C9.88556 12.1091 10.4703 12.2472 10.9674 12.2472C11.4879 12.2472 11.9123 12.0958 12.2145 11.7935C12.5557 11.4522 12.8814 10.7735 12.4952 9.47814C12.3299 8.92369 12.046 8.31013 11.6703 7.68614Z" fill="#FA00FF"/>
<path d="M13.963 0.962294C13.3083 0.325438 12.4414 -0.0162513 11.5213 0.000594443C10.6004 0.017323 9.7451 0.390712 9.11299 1.05197C8.56441 1.62584 8.23151 2.37809 8.17564 3.17017C8.10784 4.13142 7.71055 5.02091 7.05699 5.67473L6.96585 5.7659C6.8024 5.92937 6.8024 6.19436 6.96582 6.35784L8.59745 7.98997C8.67597 8.06851 8.78249 8.11264 8.89359 8.11264C9.00465 8.11261 9.11114 8.06846 9.18966 7.98988L9.20985 7.96967C9.88769 7.29159 10.8068 6.8839 11.7979 6.82164C12.6279 6.76949 13.409 6.41658 13.9975 5.82786C14.649 5.17621 15.0042 4.30981 14.9978 3.38822C14.9914 2.46678 14.6239 1.60524 13.963 0.962294Z" fill="#FA00FF"/>
</svg>
