<svg width="14" height="14" viewBox="0 0 14 14" fill="none" xmlns="http://www.w3.org/2000/svg">
<path d="M7.00002 0C3.13402 0 0 3.13402 0 7.00002C0 10.866 3.13402 14 7.00002 14C10.866 14 14 10.866 14 7.00002C13.9959 3.13575 10.8643 0.00413088 7.00002 0ZM7.50003 7.00002C7.50003 7.27617 7.27617 7.50003 7.00002 7.50003H3.00001C2.72386 7.50003 2.5 7.27617 2.5 7.00002C2.5 6.72387 2.72386 6.50001 3.00001 6.50001H6.50004V3.00001C6.50004 2.72386 6.7239 2.5 7.00005 2.5C7.2762 2.5 7.50003 2.72386 7.50003 3.00001V7.00002Z" fill="#030091"/>
</svg>
