<svg width="12" height="12" viewBox="0 0 12 12" fill="none" xmlns="http://www.w3.org/2000/svg">
<path d="M6.00002 0C2.6863 0 0 2.6863 0 6.00002C0 9.31374 2.6863 12 6.00002 12C9.31374 12 12 9.31374 12 6.00002C11.9965 2.68778 9.31228 0.00354075 6.00002 0ZM6.4286 6.00002C6.4286 6.23672 6.23672 6.4286 6.00002 6.4286H2.57144C2.33474 6.4286 2.14286 6.23672 2.14286 6.00002C2.14286 5.76331 2.33474 5.57144 2.57144 5.57144H5.57146V2.57144C5.57146 2.33474 5.76334 2.14286 6.00004 2.14286C6.23675 2.14286 6.4286 2.33474 6.4286 2.57144V6.00002Z" fill="black" fill-opacity="0.5"/>
</svg>
