<svg width="17" height="11" viewBox="0 0 17 11" fill="none" xmlns="http://www.w3.org/2000/svg">
<path d="M8.5 0.788086C5.25197 0.788086 2.30648 2.56511 0.133016 5.45148C-0.0443388 5.68795 -0.0443388 6.01832 0.133016 6.25479C2.30648 9.14464 5.25197 10.9217 8.5 10.9217C11.748 10.9217 14.6935 9.14464 16.867 6.25827C17.0443 6.0218 17.0443 5.69143 16.867 5.45496C14.6935 2.56511 11.748 0.788086 8.5 0.788086ZM8.733 9.42284C6.57691 9.55847 4.79641 7.78144 4.93203 5.62188C5.04332 3.84137 6.4865 2.39819 8.267 2.28691C10.4231 2.15129 12.2036 3.92831 12.068 6.08787C11.9532 7.8649 10.51 9.30808 8.733 9.42284ZM8.62519 7.77448C7.46369 7.84751 6.50389 6.89118 6.58039 5.72968C6.63951 4.76988 7.41848 3.99439 8.37829 3.93179C9.53979 3.85876 10.4996 4.81509 10.4231 5.97659C10.3605 6.93987 9.58152 7.71536 8.62519 7.77448Z" fill="black" fill-opacity="0.2"/>
</svg>
