<svg width="30" height="30" viewBox="0 0 30 30" fill="none" xmlns="http://www.w3.org/2000/svg">
<path d="M28.3497 1.65026C27.2499 0.550156 25.9248 0 24.3754 0H5.62504C4.07568 0 2.75058 0.550156 1.65026 1.65026C0.550156 2.75058 0 4.07562 0 5.62504V24.3752C0 25.9245 0.550156 27.2497 1.65026 28.35C2.75058 29.4503 4.07568 30.0005 5.62504 30.0005H24.3752C25.9246 30.0005 27.2497 29.4503 28.3495 28.35C29.4498 27.2497 30 25.9246 30 24.3752V5.62504C29.9999 4.07562 29.4498 2.75037 28.3497 1.65026ZM25.5275 15.4298H22.1095V27.8321H16.9922V15.4298H14.4337V11.1523H16.9923V8.59357C16.9923 6.75758 17.4221 5.37097 18.2814 4.43333C19.1405 3.4957 20.5597 3.02716 22.5394 3.02716H25.9574V7.30459H23.8092C23.0797 7.30459 22.6143 7.43135 22.4125 7.6855C22.2107 7.93937 22.1095 8.38533 22.1095 9.02347V11.1523H25.9771L25.5275 15.4298Z" fill="#030090"/>
</svg>
