<svg width="54" height="54" viewBox="0 0 54 54" fill="none" xmlns="http://www.w3.org/2000/svg">
<path d="M52.9453 25.9453H51.7092C50.0676 25.9453 48.524 25.3059 47.363 24.1449C45.8035 22.5854 43.7303 21.7266 41.5252 21.7266H33.75V12.6562C33.75 10.33 31.8575 8.4375 29.5312 8.4375C28.7631 8.4375 28.0429 8.64485 27.4219 9.00513V8.4375C27.4219 6.11128 25.5293 4.21875 23.2031 4.21875C22.435 4.21875 21.7148 4.4261 21.0938 4.78638V4.21875C21.0938 1.89253 19.2012 0 16.875 0C14.5488 0 12.6562 1.89253 12.6562 4.21875V4.78638C12.0352 4.4261 11.315 4.21875 10.5469 4.21875C8.22066 4.21875 6.32812 6.11128 6.32812 8.4375V21.8402C4.98698 20.4698 3.11892 19.6172 1.05469 19.6172C0.472289 19.6172 0 20.0895 0 20.6719V37.5469C0 40.518 1.41929 43.3568 3.79688 45.1406L5.48427 46.4061C7.1955 47.69 8.4375 50.4401 8.4375 52.9453C8.4375 53.5277 8.90979 54 9.49219 54H14.2383C14.8207 54 15.293 53.5277 15.293 52.9453C15.293 52.3629 14.8207 51.8906 14.2383 51.8906H10.4899C10.2266 49.3877 9.0411 46.4377 6.75 44.7188L5.06261 43.4532C3.21342 42.0658 2.10938 39.8578 2.10938 37.5469V21.8326C4.51343 22.3226 6.32812 24.4535 6.32812 27V33.3281C6.32812 33.9105 6.80041 34.3828 7.38281 34.3828C11.4537 34.3828 14.7656 37.6947 14.7656 41.7656C14.7656 42.348 15.2379 42.8203 15.8203 42.8203C16.4027 42.8203 16.875 42.348 16.875 41.7656C16.875 36.8881 13.1769 32.8581 8.4375 32.3317V8.4375C8.4375 7.27439 9.38377 6.32812 10.5469 6.32812C11.71 6.32812 12.6562 7.27439 12.6562 8.4375V22.7812C12.6562 23.3636 13.1285 23.8359 13.7109 23.8359C14.2933 23.8359 14.7656 23.3636 14.7656 22.7812V4.21875C14.7656 3.05564 15.7119 2.10938 16.875 2.10938C18.0381 2.10938 18.9844 3.05564 18.9844 4.21875V22.7812C18.9844 23.3636 19.4567 23.8359 20.0391 23.8359C20.6215 23.8359 21.0938 23.3636 21.0938 22.7812V8.4375C21.0938 7.27439 22.04 6.32812 23.2031 6.32812C24.3662 6.32812 25.3125 7.27439 25.3125 8.4375V22.7812C25.3125 23.3636 25.7848 23.8359 26.3672 23.8359C26.9496 23.8359 27.4219 23.3636 27.4219 22.7812V12.6562C27.4219 11.4931 28.3681 10.5469 29.5312 10.5469C30.6944 10.5469 31.6406 11.4931 31.6406 12.6562V21.7266H30.5859C28.8413 21.7266 27.4219 23.146 27.4219 24.8906C27.4219 25.2604 27.4862 25.6152 27.6033 25.9453H22.1484C20.4038 25.9453 18.9844 27.3647 18.9844 29.1094C18.9844 29.5211 19.0643 29.9144 19.2081 30.2755C17.8654 30.6415 16.875 31.8711 16.875 33.3281C16.875 34.7852 17.8654 36.0147 19.2081 36.3807C19.0643 36.7418 18.9844 37.1351 18.9844 37.5469C18.9844 39.0039 19.9747 40.2335 21.3174 40.5995C21.1737 40.9606 21.0938 41.3539 21.0938 41.7656C21.0938 43.5103 22.5131 44.9297 24.2578 44.9286H29.38C28.2783 46.9724 27.5528 49.5617 27.4379 51.8906H23.7305C23.1481 51.8906 22.6758 52.3629 22.6758 52.9453C22.6758 53.5277 23.1481 54 23.7305 54H28.4766C29.059 54 29.5312 53.5277 29.5312 52.9453V52.5298C29.5312 50.2134 30.1888 47.6845 31.8306 44.9297H42.1495C43.8564 44.9297 45.5645 44.5265 47.0892 43.7635C48.3223 43.1464 49.704 42.8203 51.0849 42.8203H52.9453C53.5277 42.8203 54 42.348 54 41.7656V27C54 26.4176 53.5277 25.9453 52.9453 25.9453ZM51.8906 40.7109H51.0848C49.3779 40.7109 47.6699 41.1141 46.1452 41.8771C44.9121 42.4941 43.5303 42.8203 42.1495 42.8203C40.3422 42.8203 26.0652 42.8203 24.2578 42.8203C23.6763 42.8203 23.2031 42.3472 23.2031 41.7656C23.2031 41.1841 23.6763 40.7109 24.2578 40.7109H32.6953C33.2777 40.7109 33.75 40.2386 33.75 39.6562C33.75 39.0739 33.2777 38.6016 32.6953 38.6016H22.1484C21.5669 38.6016 21.0938 38.1284 21.0938 37.5469C21.0938 36.9653 21.5669 36.4922 22.1484 36.4922H32.6953C33.2777 36.4922 33.75 36.0199 33.75 35.4375C33.75 34.8551 33.2777 34.3828 32.6953 34.3828H20.0391C19.4575 34.3828 18.9844 33.9097 18.9844 33.3281C18.9844 32.7466 19.4575 32.2734 20.0391 32.2734H32.6953C33.2777 32.2734 33.75 31.8011 33.75 31.2188C33.75 30.6364 33.2777 30.1641 32.6953 30.1641H22.1484C21.5669 30.1641 21.0938 29.6909 21.0938 29.1094C21.0938 28.5278 21.5669 28.0547 22.1484 28.0547H36.9141C37.4965 28.0547 37.9688 27.5824 37.9688 27C37.9688 26.4176 37.4965 25.9453 36.9141 25.9453H30.5859C30.0044 25.9453 29.5312 25.4722 29.5312 24.8906C29.5312 24.3091 30.0044 23.8359 30.5859 23.8359H41.5252C43.1668 23.8359 44.7104 24.4754 45.8714 25.6364C47.4309 27.1959 49.5041 28.0547 51.7092 28.0547H51.8906V40.7109Z" fill="white"/>
<path d="M18.9844 54C19.5669 54 20.0391 53.5278 20.0391 52.9453C20.0391 52.3628 19.5669 51.8906 18.9844 51.8906C18.4019 51.8906 17.9297 52.3628 17.9297 52.9453C17.9297 53.5278 18.4019 54 18.9844 54Z" fill="white"/>
</svg>
