<svg width="29" height="29" viewBox="0 0 29 29" fill="none" xmlns="http://www.w3.org/2000/svg">
<path d="M28.4336 13.9336H27.7698C26.8882 13.9336 26.0592 13.5902 25.4357 12.9667C24.5982 12.1292 23.4848 11.668 22.3005 11.668H18.125V6.79688C18.125 5.54761 17.1086 4.53125 15.8594 4.53125C15.4469 4.53125 15.0601 4.64261 14.7266 4.83609V4.53125C14.7266 3.28198 13.7102 2.26562 12.4609 2.26562C12.0484 2.26562 11.6616 2.37698 11.3281 2.57046V2.26562C11.3281 1.01636 10.3118 0 9.0625 0C7.81323 0 6.79688 1.01636 6.79688 2.26562V2.57046C6.46338 2.37698 6.07658 2.26562 5.66406 2.26562C4.4148 2.26562 3.39844 3.28198 3.39844 4.53125V11.729C2.6782 10.993 1.67498 10.5352 0.566406 10.5352C0.253637 10.5352 0 10.7888 0 11.1016V20.1641C0 21.7597 0.762213 23.2842 2.03906 24.2422L2.94526 24.9218C3.86425 25.6113 4.53125 27.0882 4.53125 28.4336C4.53125 28.7464 4.78489 29 5.09766 29H7.64648C7.95925 29 8.21289 28.7464 8.21289 28.4336C8.21289 28.1208 7.95925 27.8672 7.64648 27.8672H5.63348C5.49204 26.523 4.8554 24.9388 3.625 24.0156L2.71881 23.336C1.72573 22.5909 1.13281 21.4051 1.13281 20.1641V11.7249C2.42388 11.988 3.39844 13.1324 3.39844 14.5V17.8984C3.39844 18.2112 3.65207 18.4648 3.96484 18.4648C6.15106 18.4648 7.92969 20.2435 7.92969 22.4297C7.92969 22.7425 8.18332 22.9961 8.49609 22.9961C8.80886 22.9961 9.0625 22.7425 9.0625 22.4297C9.0625 19.8103 7.07651 17.646 4.53125 17.3633V4.53125C4.53125 3.90662 5.03943 3.39844 5.66406 3.39844C6.2887 3.39844 6.79688 3.90662 6.79688 4.53125V12.2344C6.79688 12.5471 7.05051 12.8008 7.36328 12.8008C7.67605 12.8008 7.92969 12.5471 7.92969 12.2344V2.26562C7.92969 1.64099 8.43787 1.13281 9.0625 1.13281C9.68713 1.13281 10.1953 1.64099 10.1953 2.26562V12.2344C10.1953 12.5471 10.4489 12.8008 10.7617 12.8008C11.0745 12.8008 11.3281 12.5471 11.3281 12.2344V4.53125C11.3281 3.90662 11.8363 3.39844 12.4609 3.39844C13.0856 3.39844 13.5938 3.90662 13.5938 4.53125V12.2344C13.5938 12.5471 13.8474 12.8008 14.1602 12.8008C14.4729 12.8008 14.7266 12.5471 14.7266 12.2344V6.79688C14.7266 6.17224 15.2347 5.66406 15.8594 5.66406C16.484 5.66406 16.9922 6.17224 16.9922 6.79688V11.668H16.4258C15.4888 11.668 14.7266 12.4302 14.7266 13.3672C14.7266 13.5658 14.7611 13.7563 14.824 13.9336H11.8945C10.9576 13.9336 10.1953 14.6959 10.1953 15.6328C10.1953 15.8539 10.2382 16.0652 10.3154 16.2591C9.59436 16.4556 9.0625 17.1159 9.0625 17.8984C9.0625 18.6809 9.59436 19.3412 10.3154 19.5378C10.2382 19.7317 10.1953 19.9429 10.1953 20.1641C10.1953 20.9466 10.7272 21.6069 11.4483 21.8034C11.3711 21.9973 11.3281 22.2086 11.3281 22.4297C11.3281 23.3666 12.0904 24.1289 13.0273 24.1283H15.7782C15.1865 25.2259 14.7969 26.6164 14.7352 27.8672H12.7441C12.4314 27.8672 12.1777 28.1208 12.1777 28.4336C12.1777 28.7464 12.4314 29 12.7441 29H15.293C15.6057 29 15.8594 28.7464 15.8594 28.4336V28.2104C15.8594 26.9664 16.2125 25.6084 17.0942 24.1289H22.6359C23.5525 24.1289 24.4698 23.9124 25.2886 23.5026C25.9509 23.1712 26.6929 22.9961 27.4345 22.9961H28.4336C28.7464 22.9961 29 22.7425 29 22.4297V14.5C29 14.1872 28.7464 13.9336 28.4336 13.9336ZM27.8672 21.8633H27.4345C26.5178 21.8633 25.6005 22.0798 24.7817 22.4896C24.1194 22.8209 23.3774 22.9961 22.6359 22.9961C21.6653 22.9961 13.998 22.9961 13.0273 22.9961C12.715 22.9961 12.4609 22.742 12.4609 22.4297C12.4609 22.1174 12.715 21.8633 13.0273 21.8633H17.5586C17.8714 21.8633 18.125 21.6096 18.125 21.2969C18.125 20.9841 17.8714 20.7305 17.5586 20.7305H11.8945C11.5822 20.7305 11.3281 20.4764 11.3281 20.1641C11.3281 19.8517 11.5822 19.5977 11.8945 19.5977H17.5586C17.8714 19.5977 18.125 19.344 18.125 19.0312C18.125 18.7185 17.8714 18.4648 17.5586 18.4648H10.7617C10.4494 18.4648 10.1953 18.2108 10.1953 17.8984C10.1953 17.5861 10.4494 17.332 10.7617 17.332H17.5586C17.8714 17.332 18.125 17.0784 18.125 16.7656C18.125 16.4529 17.8714 16.1992 17.5586 16.1992H11.8945C11.5822 16.1992 11.3281 15.9451 11.3281 15.6328C11.3281 15.3205 11.5822 15.0664 11.8945 15.0664H19.8242C20.137 15.0664 20.3906 14.8128 20.3906 14.5C20.3906 14.1872 20.137 13.9336 19.8242 13.9336H16.4258C16.1135 13.9336 15.8594 13.6795 15.8594 13.3672C15.8594 13.0549 16.1135 12.8008 16.4258 12.8008H22.3005C23.1822 12.8008 24.0112 13.1442 24.6346 13.7677C25.4721 14.6052 26.5855 15.0664 27.7698 15.0664H27.8672V21.8633Z" fill="#030091"/>
</svg>
