<svg width="30" height="30" viewBox="0 0 30 30" fill="none" xmlns="http://www.w3.org/2000/svg">
<path d="M19.9631 14.9999C19.9631 17.7408 17.7408 19.9631 14.9999 19.9631C12.2589 19.9631 10.0366 17.7408 10.0366 14.9999C10.0366 12.2589 12.2589 10.0366 14.9999 10.0366C17.7408 10.0366 19.9631 12.2589 19.9631 14.9999Z" fill="#030090"/>
<path d="M23.3824 0H6.61765C2.96846 0 0 2.96846 0 6.61765V23.3824C0 27.0315 2.96846 30 6.61765 30H23.3824C27.0315 30 30 27.0315 30 23.3824V6.61765C30 2.96846 27.0315 0 23.3824 0ZM15 23.2721C10.4387 23.2721 6.72794 19.5613 6.72794 15C6.72794 10.4387 10.4387 6.72794 15 6.72794C19.5613 6.72794 23.2721 10.4387 23.2721 15C23.2721 19.5613 19.5613 23.2721 15 23.2721ZM24.4853 7.16912C23.5715 7.16912 22.8309 6.42851 22.8309 5.51471C22.8309 4.6009 23.5715 3.86029 24.4853 3.86029C25.3991 3.86029 26.1397 4.6009 26.1397 5.51471C26.1397 6.42851 25.3991 7.16912 24.4853 7.16912Z" fill="#030090"/>
</svg>
