<svg width="98" height="36" viewBox="0 0 98 36" fill="none" xmlns="http://www.w3.org/2000/svg">
<path d="M1.79912 28V7.05937H11.4141C12.4366 7.05937 13.3804 7.26583 14.2455 7.67874C15.1107 8.09165 15.8579 8.65204 16.4871 9.35989C17.1163 10.0481 17.598 10.8248 17.9323 11.6899C18.2862 12.5551 18.4631 13.43 18.4631 14.3149C18.4631 15.5143 18.1977 16.6449 17.6668 17.7066C17.1359 18.7684 16.3986 19.6336 15.4548 20.3021L19.8789 28H13.5672L9.88044 21.5703H7.55042V28H1.79912ZM7.55042 16.5564H11.1782C11.5321 16.5564 11.8565 16.3598 12.1515 15.9665C12.4661 15.5733 12.6234 15.0227 12.6234 14.3149C12.6234 13.5873 12.4464 13.0368 12.0925 12.6632C11.7386 12.2699 11.3846 12.0733 11.0307 12.0733H7.55042V16.5564ZM50.7891 28V16.9693L47.2793 24.7262H44.212L40.7022 16.9693V28H34.9509V7.05937H41.2331L45.7456 16.9103L50.2877 7.05937H56.5404V28H50.7891ZM75.0482 22.986V28H60.1244V7.05937H74.7828V12.0733H65.8757V15.0227H73.4851V19.6827H65.8757V22.986H75.0482ZM77.7227 28V7.05937H85.7746C88.0947 7.05937 90.0315 7.53127 91.5848 8.47507C93.1578 9.39921 94.3376 10.6576 95.1241 12.2503C95.9303 13.8233 96.3333 15.5733 96.3333 17.5002C96.3333 19.6237 95.8909 21.472 95.0061 23.045C94.141 24.618 92.9121 25.8371 91.3194 26.7023C89.7464 27.5674 87.8981 28 85.7746 28H77.7227ZM90.4936 17.5002C90.4936 15.8682 90.0708 14.5606 89.2253 13.5775C88.3995 12.5747 87.2492 12.0733 85.7746 12.0733H83.474V22.986H85.7746C87.2886 22.986 88.4487 22.465 89.2548 21.4229C90.0807 20.3808 90.4936 19.0732 90.4936 17.5002Z" fill="white"/>
<ellipse cx="23.7797" cy="24.2648" rx="3.60294" ry="4.04412" fill="#FFE600"/>
</svg>
