<svg width="175" height="64" viewBox="0 0 175 64" fill="none" xmlns="http://www.w3.org/2000/svg">
<path d="M3.23545 51V13.3415H20.5265C22.3653 13.3415 24.0626 13.7128 25.6184 14.4553C27.1742 15.1979 28.5179 16.2056 29.6495 17.4786C30.781 18.7162 31.6473 20.1129 32.2484 21.6688C32.8849 23.2246 33.2031 24.7982 33.2031 26.3894C33.2031 28.5463 32.7258 30.5795 31.7711 32.489C30.8163 34.3984 29.4903 35.9543 27.7931 37.1565L35.7491 51H24.3985L17.7685 39.4372H13.5783V51H3.23545ZM13.5783 30.4204H20.1022C20.7387 30.4204 21.3221 30.0668 21.8526 29.3596C22.4183 28.6524 22.7012 27.6623 22.7012 26.3894C22.7012 25.081 22.383 24.091 21.7465 23.4191C21.11 22.7119 20.4735 22.3583 19.837 22.3583H13.5783V30.4204ZM91.3364 51V31.163L85.0246 45.1125H79.5085L73.1967 31.163V51H62.8538V13.3415H74.1514L82.2665 31.0569L90.4347 13.3415H101.679V51H91.3364ZM134.963 41.9832V51H108.124V13.3415H134.485V22.3583H118.467V27.6623H132.152V36.0427H118.467V41.9832H134.963ZM139.772 51V13.3415H154.252C158.425 13.3415 161.908 14.1901 164.701 15.8874C167.53 17.5493 169.652 19.8124 171.066 22.6765C172.516 25.5054 173.241 28.6524 173.241 32.1177C173.241 35.9366 172.445 39.2604 170.854 42.0893C169.298 44.9181 167.088 47.1104 164.224 48.6662C161.395 50.2221 158.071 51 154.252 51H139.772ZM162.739 32.1177C162.739 29.1828 161.979 26.8314 160.458 25.0634C158.973 23.26 156.904 22.3583 154.252 22.3583H150.115V41.9832H154.252C156.975 41.9832 159.061 41.0461 160.511 39.172C161.996 37.298 162.739 34.9465 162.739 32.1177Z" fill="black"/>
<circle cx="48.5" cy="43.5" r="7.5" fill="#FFE600"/>
</svg>
