<svg width="17" height="17" viewBox="0 0 17 17" fill="none" xmlns="http://www.w3.org/2000/svg">
<path d="M8.50018 2.08643C3.80576 2.08643 0 5.92831 0 10.6676C0 13.2373 1.10899 14.9132 1.10899 14.9132L15.8878 14.914C15.8878 14.914 17 13.0823 17 10.6674C17 5.92831 13.1942 2.08643 8.50018 2.08643ZM15.2644 13.8686L1.76288 13.8627C1.76288 13.8627 1.04344 12.5002 1.04344 10.6405C1.04344 6.48671 4.39464 3.11917 8.52868 3.11917C12.6625 3.11917 16.0139 6.48654 16.0139 10.6405C16.0141 12.5213 15.2644 13.8686 15.2644 13.8686Z" fill="black" fill-opacity="0.5"/>
<path d="M10.9024 4.36527L10.7957 4.36509L8.52834 8.80795L6.17944 4.32715L2.96344 12.4218H2.13232V13.072H6.68549V12.4218H5.78205L6.68549 9.89199L8.52834 13.072L10.2991 9.89199L11.2023 12.4218H10.2991V13.072H14.8159V12.4218H14.0334L10.9024 4.36527Z" fill="black" fill-opacity="0.5"/>
</svg>
