<svg width="13" height="13" viewBox="0 0 13 13" fill="none" xmlns="http://www.w3.org/2000/svg">
<path d="M7.14848 3.91602H5.58594V6.96289H7.14848C7.96694 6.96289 8.63281 6.29702 8.63281 5.47858V5.40033C8.63281 4.58189 7.96694 3.91602 7.14848 3.91602Z" fill="#006DD2"/>
<path d="M11.0962 1.90379C9.8685 0.676102 8.23621 0 6.5 0C4.76379 0 3.1315 0.676102 1.90379 1.90379C0.676127 3.1315 0 4.76381 0 6.5C0 8.23619 0.676127 9.8685 1.90381 11.0962C3.1315 12.3239 4.76379 13 6.5 13C8.23621 13 9.8685 12.3239 11.0962 11.0962C12.3239 9.8685 13 8.23619 13 6.5C13 4.76381 12.3239 3.1315 11.0962 1.90379ZM9.39456 5.47856C9.39456 6.71701 8.38698 7.72459 7.1485 7.72459H5.58596V9.84575H4.82424V3.15428H7.1485C8.38698 3.15428 9.39456 4.16185 9.39456 5.40031V5.47856Z" fill="#006DD2"/>
</svg>
