<svg width="14" height="15" viewBox="0 0 14 15" fill="none" xmlns="http://www.w3.org/2000/svg">
<path d="M9.44267 14.1111C9.01858 14.1111 8.59808 14.0306 8.18689 13.8701C6.37542 13.1633 4.69399 12.0122 3.32431 10.5411C1.95464 9.06996 0.882863 7.26395 0.224839 5.31829C0.0133835 4.69302 -0.0490191 4.04757 0.0394274 3.39981C0.12228 2.79306 0.3411 2.20403 0.672254 1.69638C1.00487 1.1865 1.44831 0.76241 1.95461 0.469974C2.49453 0.158137 3.08384 0 3.70622 0C3.89979 0 4.06709 0.145267 4.10766 0.348547L4.75206 3.57851C4.78123 3.72477 4.73938 3.87695 4.64093 3.98273L3.53982 5.16536C4.57855 7.38353 6.26404 9.19387 8.32922 10.3095L9.4303 9.12687C9.52878 9.02112 9.67049 8.97623 9.80664 9.00751L12.8138 9.69964C13.0031 9.74321 13.1384 9.9229 13.1384 10.1308C13.1384 10.7993 12.9911 11.4323 12.7008 12.0122C12.4285 12.556 12.0337 13.0323 11.5589 13.3895C11.0863 13.7452 10.5379 13.9803 9.97299 14.0692C9.79597 14.0972 9.61897 14.1111 9.44267 14.1111Z" fill="white"/>
</svg>
