<svg width="12" height="17" viewBox="0 0 12 17" fill="none" xmlns="http://www.w3.org/2000/svg">
<path d="M5.83398 0C2.81313 0 0.355469 2.45766 0.355469 5.47855C0.355469 9.37012 3.30809 14.2479 5.45132 16.8208C5.65017 17.0596 6.01753 17.0599 6.21668 16.8208C8.07234 14.593 11.3125 9.59656 11.3125 5.47855C11.3125 2.45766 8.85483 0 5.83398 0ZM5.83398 7.63678C4.64395 7.63678 3.67578 6.66861 3.67578 5.47858C3.67578 4.28855 4.64395 3.32038 5.83398 3.32038C7.02401 3.32038 7.99218 4.28855 7.99218 5.47858C7.99218 6.66861 7.02401 7.63678 5.83398 7.63678Z" fill="#030091"/>
</svg>
