<svg width="10" height="15" viewBox="0 0 10 15" fill="none" xmlns="http://www.w3.org/2000/svg">
<path d="M4.83398 0C2.16852 0 0 2.16852 0 4.83401C0 8.26775 2.60525 12.5717 4.49634 14.8419C4.6718 15.0526 4.99594 15.0528 5.17166 14.8419C6.809 12.8762 9.66797 8.46755 9.66797 4.83401C9.66797 2.16852 7.49944 0 4.83398 0ZM4.83398 6.73834C3.78395 6.73834 2.92969 5.88407 2.92969 4.83404C2.92969 3.78401 3.78395 2.92974 4.83398 2.92974C5.88401 2.92974 6.73828 3.78401 6.73828 4.83404C6.73828 5.88407 5.88401 6.73834 4.83398 6.73834Z" fill="black" fill-opacity="0.5"/>
</svg>
