<svg width="10" height="15" viewBox="0 0 10 15" fill="none" xmlns="http://www.w3.org/2000/svg">
<path d="M0.5 4.83401C0.5 2.44466 2.44467 0.5 4.83398 0.5C7.2233 0.5 9.16797 2.44466 9.16797 4.83401C9.16797 6.53459 8.49389 8.46144 7.58843 10.2362C6.70492 11.9679 5.62725 13.5043 4.83399 14.4658C3.92142 13.3607 2.84157 11.7744 1.9869 10.052C1.1135 8.29186 0.5 6.43878 0.5 4.83401ZM2.42969 4.83404C2.42969 6.16021 3.50781 7.23834 4.83398 7.23834C6.16015 7.23834 7.23828 6.16021 7.23828 4.83404C7.23828 3.50787 6.16015 2.42974 4.83398 2.42974C3.50781 2.42974 2.42969 3.50787 2.42969 4.83404Z" stroke="black" stroke-opacity="0.8"/>
</svg>
