<svg width="10" height="14" viewBox="0 0 10 14" fill="none" xmlns="http://www.w3.org/2000/svg">
<path d="M4.51172 0C2.02396 0 0 2.02396 0 4.51174C0 7.71657 2.43157 11.7336 4.19658 13.8524C4.36034 14.049 4.66287 14.0493 4.82688 13.8524C6.35507 12.0178 9.02343 7.90305 9.02343 4.51174C9.02343 2.02396 6.99948 0 4.51172 0ZM4.51172 6.28911C3.53169 6.28911 2.73437 5.4918 2.73437 4.51177C2.73437 3.53174 3.53169 2.73443 4.51172 2.73443C5.49174 2.73443 6.28906 3.53174 6.28906 4.51177C6.28906 5.4918 5.49174 6.28911 4.51172 6.28911Z" fill="white"/>
</svg>
