<svg width="16" height="24" viewBox="0 0 16 24" fill="none" xmlns="http://www.w3.org/2000/svg">
<path d="M7.73437 0C3.46964 0 0 3.46964 0 7.73442C0 13.2284 4.1684 20.1147 7.19414 23.7471C7.47487 24.0841 7.9935 24.0846 8.27465 23.7471C10.8944 20.6019 15.4687 13.5481 15.4687 7.73442C15.4687 3.46964 11.9991 0 7.73437 0ZM7.73437 10.7813C6.05433 10.7813 4.6875 9.41451 4.6875 7.73447C4.6875 6.05442 6.05433 4.68759 7.73437 4.68759C9.41442 4.68759 10.7812 6.05442 10.7812 7.73447C10.7812 9.41451 9.41442 10.7813 7.73437 10.7813Z" fill="black"/>
</svg>
