<svg width="118" height="117" viewBox="0 0 118 117" fill="none" xmlns="http://www.w3.org/2000/svg">
<path d="M0 58.5C-1.02014e-06 70.0702 3.46029 81.3806 9.94329 91.0009C16.4263 100.621 25.6408 108.119 36.4217 112.547C47.2025 116.975 59.0654 118.133 70.5103 115.876C81.9552 113.619 92.468 108.047 100.719 99.8658C108.971 91.6844 114.59 81.2607 116.866 69.9128C119.143 58.5649 117.974 46.8025 113.509 36.113C109.043 25.4235 101.481 16.2871 91.7786 9.85903C82.0761 3.43097 70.6691 8.73527e-07 59 0L59 8.84951C68.9039 8.84951 78.5853 11.7615 86.8201 17.2171C95.0549 22.6728 101.473 30.4271 105.263 39.4996C109.053 48.572 110.045 58.5551 108.113 68.1863C106.181 77.8176 101.411 86.6645 94.4083 93.6082C87.4052 100.552 78.4827 105.281 68.7691 107.196C59.0555 109.112 48.9872 108.129 39.8372 104.371C30.6872 100.613 22.8666 94.2493 17.3643 86.0843C11.862 77.9194 8.92514 68.3199 8.92514 58.5L0 58.5Z" fill="white"/>
<circle cx="59" cy="58.623" r="43" fill="white"/>
</svg>
