<svg width="118" height="117" viewBox="0 0 118 117" fill="none" xmlns="http://www.w3.org/2000/svg">
<path d="M59 117C66.748 117 74.4201 115.487 81.5783 112.547C88.7365 109.607 95.2406 105.298 100.719 99.8657C106.198 94.4335 110.544 87.9845 113.509 80.887C116.474 73.7894 118 66.1823 118 58.5C118 50.8177 116.474 43.2106 113.509 36.113C110.544 29.0155 106.198 22.5665 100.719 17.1342C95.2406 11.702 88.7365 7.39294 81.5783 4.45304C74.4201 1.51314 66.748 -2.16741e-06 59 0L59 8.84951C65.5759 8.8495 72.0874 10.1338 78.1628 12.6289C84.2382 15.1241 89.7584 18.7813 94.4083 23.3918C99.0581 28.0023 102.747 33.4757 105.263 39.4996C107.78 45.5234 109.075 51.9798 109.075 58.5C109.075 65.0202 107.78 71.4765 105.263 77.5004C102.747 83.5243 99.0582 88.9977 94.4083 93.6082C89.7584 98.2187 84.2382 101.876 78.1628 104.371C72.0875 106.866 65.5759 108.15 59 108.15L59 117Z" fill="white"/>
<circle cx="61" cy="58.623" r="43" fill="white"/>
</svg>
