<svg width="30" height="30" viewBox="0 0 30 30" fill="none" xmlns="http://www.w3.org/2000/svg">
<path d="M24.8508 0H4.7804C2.35519 0 0 1.64286 0 5.64286V25.4286C0 29.1429 2.93742 30 3.99445 30H26.3708C28.3178 30 30.315 28.5 29.9584 25.4286V5.64286C29.9584 1.91377 27.5522 0 24.8508 0ZM24.8508 18.2803C25.3983 18.8392 26.5864 19.777 26.3708 20.7318C26.1721 21.6082 24.8656 21.2885 23.5972 21.3394C22.149 21.4007 21.2907 21.4325 20.4197 20.7318C20.0096 20.3994 19.7686 20.0056 19.3754 19.5653C19.0181 19.1673 18.5678 18.4539 17.9547 18.4814C16.8533 18.5364 17.1979 20.0734 16.8068 21.1213C10.6845 22.0867 8.22581 18.2993 6.05679 14.6242C5.0061 12.8438 3.4882 9.02054 3.4882 9.02054L7.8178 9.00572C7.8178 9.00572 9.20674 11.5355 9.57458 12.1876C9.88746 12.7422 10.2321 13.1826 10.5872 13.6779C10.8853 14.0886 11.3567 14.8931 11.8726 14.8275C12.7119 14.7195 12.8641 11.4593 12.344 10.3669C12.1368 9.92449 11.64 9.76995 11.1263 9.61965C11.2997 8.52304 15.9823 8.2944 16.7391 9.14544C17.8384 10.3818 15.9781 13.824 17.4833 14.8275C19.5973 13.7182 21.4028 9.07346 21.4028 9.07346L26.4723 9.10522C26.4723 9.10522 25.6795 11.616 24.8487 12.7295C24.3646 13.3816 22.7579 14.8338 22.8213 15.9114C22.872 16.7645 24.1785 17.5944 24.8508 18.2803Z" fill="#030090"/>
</svg>
