<svg width="12" height="11" viewBox="0 0 12 11" fill="none" xmlns="http://www.w3.org/2000/svg">
<path d="M0.244452 0C0.109519 0 0 0.102674 0 0.229174V2.0625C0 2.189 0.109519 2.29168 0.244452 2.29168C5.2316 2.29168 9.28891 6.09538 9.28891 10.7709C9.28891 10.8974 9.39843 11 9.53336 11H11.4889C11.6238 11 11.7334 10.8974 11.7334 10.7709C11.7333 4.83175 6.57947 0 0.244452 0Z" fill="#3633D9"/>
<path d="M0.244452 3.6665C0.109519 3.6665 0 3.76916 0 3.89566V5.72898C0 5.85548 0.109519 5.95816 0.244452 5.95816C3.07512 5.95816 5.37779 8.11691 5.37779 10.7707C5.37779 10.8972 5.48731 10.9998 5.62224 10.9998H7.57779C7.71272 10.9998 7.82224 10.8972 7.82224 10.7707C7.82222 6.85328 4.42299 3.6665 0.244452 3.6665Z" fill="#3633D9"/>
<path d="M1.71112 10.9999C2.65615 10.9999 3.42224 10.2816 3.42224 9.39568C3.42224 8.50972 2.65615 7.7915 1.71112 7.7915C0.766094 7.7915 0 8.50972 0 9.39568C0 10.2816 0.766094 10.9999 1.71112 10.9999Z" fill="#3633D9"/>
</svg>
