<svg width="1186" height="934" viewBox="0 0 1186 934" fill="none" xmlns="http://www.w3.org/2000/svg">
<path d="M838.381 470.918C857.464 448.324 853.523 413.84 829.881 396.536L503.584 157.712C488.099 146.378 467.612 145.229 450.948 154.759L170.132 315.367C150.118 326.814 140.348 350.857 146.532 373.448L240.204 715.662C245.645 735.538 262.312 749.988 282.32 752.176L548.234 781.249C564.314 783.008 580.239 776.559 590.855 763.991L838.381 470.918Z" fill="#FFE500" fill-opacity="0.8"/>
<path d="M923.863 516.681C950.874 505.304 981.363 519.932 989.715 548.276L1027.54 676.652C1033.03 695.263 1027.48 715.556 1013.3 728.788L937.294 799.685C920.177 815.652 894.655 817.57 875.756 804.31L782.116 738.608C765.699 727.089 757.821 706.528 762.161 686.525L780.8 600.624C784.339 584.31 795.522 570.737 810.685 564.35L923.863 516.681Z" fill="#030090"/>
<path d="M1010.36 127.738C1037.37 116.361 1067.86 130.99 1076.22 159.334L1115.01 290.981C1120.49 309.592 1114.95 329.885 1100.76 343.117L1022.77 415.867C1005.65 431.834 980.133 433.752 961.234 420.492L865.228 353.13C848.81 341.611 840.933 321.05 845.273 301.047L864.398 212.903C867.937 196.59 879.12 183.017 894.284 176.63L1010.36 127.738Z" fill="#FFEA33"/>
<path d="M290.654 263.571C317.665 252.195 348.154 266.823 356.507 295.167L368.589 336.169C374.073 354.78 368.528 375.073 354.343 388.305L331.382 409.723C314.264 425.69 288.743 427.608 269.844 414.348L239.396 392.984C222.978 381.465 215.1 360.904 219.44 340.901L225.088 314.873C228.628 298.56 239.811 284.986 254.974 278.6L290.654 263.571Z" fill="#030090"/>
<path d="M862.312 235.672C889.323 224.295 919.813 238.924 928.165 267.267L940.247 308.269C945.731 326.881 940.186 347.174 926.001 360.405L903.04 381.824C885.923 397.791 860.401 399.709 841.502 386.449L811.054 365.085C794.636 353.566 786.759 333.005 791.099 313.002L796.746 286.974C800.286 270.66 811.469 257.087 826.632 250.7L862.312 235.672Z" fill="#030090"/>
</svg>
