<svg width="15" height="12" fill="none" xmlns="http://www.w3.org/2000/svg"><path d="M15 3v1.125a.25.25 0 01-.25.25H.25a.25.25 0 01-.25-.25V3a.25.25 0 01.25-.25h14.5A.25.25 0 0115 3zm0-1v-.75C15 .56 14.44 0 13.75 0H1.25C.56 0 0 .56 0 1.25V2c0 .138.112.25.25.25h14.5A.25.25 0 0015 2zm-2.956 4.95a.252.252 0 00-.19.339c.111.296.112.626 0 .923a.25.25 0 00.182.336.813.813 0 10.008-1.598zM.25 4.875h14.5a.25.25 0 01.25.25v4.688c0 .69-.56 1.25-1.25 1.25H1.25c-.69 0-1.25-.56-1.25-1.25V5.125a.25.25 0 01.25-.25zm4.375 3.656a.25.25 0 00-.25-.25H2.281a.25.25 0 000 .5h2.094a.25.25 0 00.25-.25zm0-1.562a.25.25 0 00-.25-.25H2.281a.25.25 0 000 .5h2.094a.25.25 0 00.25-.25zm8.875.781c0-1.074-1.227-1.695-2.094-1.054-.86-.64-2.094-.024-2.094 1.054 0 1.077 1.233 1.694 2.094 1.054.861.64 2.094.024 2.094-1.054z" fill="#62B145"/></svg>