<svg width="15" height="15" fill="none" xmlns="http://www.w3.org/2000/svg"><path d="M7.46 11.847a3.089 3.089 0 01-2.512 1.293 3.07 3.07 0 01-2.186-.905 3.095 3.095 0 01.387-4.7 10.182 10.182 0 01-.767-1.444l-.021-.05a4.82 4.82 0 00-.954 7.55A4.78 4.78 0 004.81 15a4.78 4.78 0 003.403-1.41c.286-.287.534-.609.74-.956l-.05-.02c-.469-.2-.956-.46-1.443-.768zm4.21-4.161a3.136 3.136 0 00-1.86.884l-.019.02a1.26 1.26 0 01-.897.372 1.26 1.26 0 01-.898-.372L6.365 6.958a1.27 1.27 0 010-1.793l.091-.091a3.048 3.048 0 00.85-1.752c-.625-.377-1.24-.66-1.794-.825-1.291-.384-1.968-.058-2.31.283-.59.59-.604 1.648-.038 2.979.496 1.168 1.41 2.468 2.508 3.565 1.097 1.098 2.396 2.012 3.564 2.509.65.276 1.234.414 1.731.414.52 0 .945-.151 1.247-.454.342-.34.667-1.02.281-2.315-.165-.554-.449-1.168-.825-1.792z" fill="#FA00FF"/><path d="M13.963.962a3.386 3.386 0 00-2.442-.961 3.39 3.39 0 00-2.408 1.051 3.42 3.42 0 00-.937 2.118 3.922 3.922 0 01-1.119 2.505l-.091.09a.419.419 0 000 .593L8.597 7.99a.419.419 0 00.593 0l.02-.02a4.002 4.002 0 012.588-1.148 3.41 3.41 0 002.2-.994 3.392 3.392 0 001-2.44A3.393 3.393 0 0013.963.962z" fill="#FA00FF"/></svg>