<svg width="17" height="11" fill="none" xmlns="http://www.w3.org/2000/svg"><path d="M8.5.788C5.252.788 2.306 2.565.133 5.451a.673.673 0 000 .804c2.173 2.89 5.119 4.667 8.367 4.667 3.248 0 6.194-1.777 8.367-4.664a.673.673 0 000-.803C14.693 2.565 11.748.788 8.5.788zm.233 8.635a3.578 3.578 0 01-3.801-3.801 3.584 3.584 0 013.335-3.335 3.578 3.578 0 013.801 3.8 3.595 3.595 0 01-3.335 3.336zm-.108-1.649A1.922 1.922 0 016.58 5.73c.06-.96.838-1.736 1.798-1.798a1.922 1.922 0 012.045 2.045 1.933 1.933 0 01-1.798 1.797z" fill="#000" fill-opacity=".2"/></svg>