<svg width="30" height="30" fill="none" xmlns="http://www.w3.org/2000/svg"><path d="M28.35 1.65C27.25.55 25.925 0 24.375 0H5.625C4.075 0 2.751.55 1.65 1.65.55 2.75 0 4.076 0 5.625v18.75c0 1.55.55 2.875 1.65 3.975C2.75 29.45 4.076 30 5.625 30h18.75c1.55 0 2.875-.55 3.974-1.65 1.1-1.1 1.651-2.425 1.651-3.975V5.625c0-1.55-.55-2.875-1.65-3.975zm-2.823 13.78H22.11v12.402h-5.117V15.43h-2.558v-4.278h2.558V8.594c0-1.836.43-3.223 1.29-4.16.858-.938 2.278-1.407 4.257-1.407h3.418v4.278H23.81c-.73 0-1.195.126-1.396.38-.202.254-.303.7-.303 1.338v2.13h3.867l-.45 4.277z" fill="#030090"/></svg>