<svg width="16" height="16" fill="none" xmlns="http://www.w3.org/2000/svg"><g clip-path="url(#clip0)" fill="#000" fill-opacity=".3"><path d="M15.53 3.245h-5.448a1.18 1.18 0 00-.25-.369l-.862-.861a1.178 1.178 0 00-.838-.348 1.18 1.18 0 00-.839.348l-.861.861a1.18 1.18 0 00-.25.37H.468a.47.47 0 000 .938H6.18c.058.134.142.26.251.37l.861.86c.224.224.522.348.839.348.317 0 .614-.124.838-.348l.862-.86c.11-.11.193-.236.25-.37h5.449a.47.47 0 000-.939zm-6.362.645l-.861.86a.246.246 0 01-.35 0l-.861-.86a.248.248 0 010-.35l.86-.862a.246.246 0 01.35 0l.862.862a.248.248 0 010 .35zm6.362 3.704H6.379a1.185 1.185 0 00-.25-.37l-.862-.861a1.178 1.178 0 00-.839-.347c-.317 0-.614.123-.838.347l-.862.861a1.18 1.18 0 00-.25.37H.469a.47.47 0 100 .938h2.008c.058.134.141.26.25.37l.862.86c.224.225.522.348.838.348.317 0 .615-.123.839-.347l.861-.862c.108-.108.193-.233.251-.369h9.153a.47.47 0 000-.938zm-10.066.644l-.862.861a.246.246 0 01-.35 0l-.86-.861a.248.248 0 010-.35l.86-.861a.246.246 0 01.35 0l.862.86a.246.246 0 010 .35zm10.066 3.578h-2.32a1.18 1.18 0 00-.25-.37l-.862-.86a1.178 1.178 0 00-.838-.348 1.18 1.18 0 00-.839.348l-.861.86a1.18 1.18 0 00-.25.37H.47a.47.47 0 000 .939h8.84c.057.134.14.26.25.37l.861.86c.224.224.522.348.839.348.317 0 .614-.124.838-.348l.862-.86c.11-.11.193-.236.25-.37h2.32a.47.47 0 100-.939zm-3.234.644l-.861.862a.246.246 0 01-.35 0l-.861-.861a.248.248 0 010-.35l.86-.862a.246.246 0 01.35 0l.862.861a.248.248 0 010 .35z"/></g><defs><clipPath id="clip0"><path fill="#fff" d="M0 0h16v16H0z"/></clipPath></defs></svg>