<svg width="54" height="54" fill="none" xmlns="http://www.w3.org/2000/svg"><path d="M52.945 25.945H51.71a6.106 6.106 0 01-4.346-1.8 8.202 8.202 0 00-5.838-2.418H33.75v-9.07a4.223 4.223 0 00-4.219-4.22 4.19 4.19 0 00-2.11.568v-.568a4.224 4.224 0 00-4.218-4.218 4.19 4.19 0 00-2.11.567V4.22A4.224 4.224 0 0016.876 0a4.224 4.224 0 00-4.219 4.219v.567a4.19 4.19 0 00-2.11-.567 4.224 4.224 0 00-4.218 4.218V21.84a7.36 7.36 0 00-5.273-2.223C.472 19.617 0 20.09 0 20.672v16.875a9.54 9.54 0 003.797 7.594l1.687 1.265c1.712 1.284 2.954 4.034 2.954 6.54 0 .582.472 1.054 1.054 1.054h4.746a1.055 1.055 0 000-2.11H10.49c-.263-2.502-1.449-5.452-3.74-7.171l-1.687-1.266a7.42 7.42 0 01-2.954-5.906V21.833A5.283 5.283 0 016.33 27v6.328c0 .582.471 1.055 1.054 1.055 4.07 0 7.383 3.312 7.383 7.383a1.055 1.055 0 002.109 0c0-4.878-3.698-8.908-8.438-9.434V8.437c0-1.163.947-2.109 2.11-2.109 1.163 0 2.11.946 2.11 2.11V22.78a1.055 1.055 0 002.109 0V4.22c0-1.163.946-2.11 2.109-2.11s2.11.947 2.11 2.11v18.56a1.055 1.055 0 002.109 0V8.438c0-1.164.946-2.11 2.11-2.11 1.162 0 2.108.946 2.108 2.11V22.78a1.055 1.055 0 002.11 0V12.656c0-1.163.946-2.11 2.11-2.11 1.162 0 2.109.947 2.109 2.11v9.07h-1.055a3.168 3.168 0 00-2.983 4.22h-5.455a3.168 3.168 0 00-2.94 4.33 3.17 3.17 0 00-2.333 3.052 3.17 3.17 0 002.333 3.053 3.145 3.145 0 00-.224 1.166 3.17 3.17 0 002.333 3.053 3.166 3.166 0 002.94 4.33h5.123c-1.102 2.042-1.827 4.632-1.942 6.96H23.73a1.055 1.055 0 000 2.11h4.746c.582 0 1.054-.472 1.054-1.055v-.415c0-2.317.658-4.846 2.3-7.6h10.32c1.706 0 3.415-.404 4.94-1.166a8.973 8.973 0 013.995-.944h1.86c.583 0 1.055-.472 1.055-1.054V27c0-.582-.472-1.055-1.055-1.055zm-1.054 14.766h-.806c-1.707 0-3.415.403-4.94 1.166a8.975 8.975 0 01-3.995.943H24.258a1.056 1.056 0 010-2.11h8.437a1.055 1.055 0 000-2.108H22.148a1.056 1.056 0 010-2.11h10.547a1.055 1.055 0 000-2.11H20.04a1.056 1.056 0 010-2.109h12.656a1.055 1.055 0 000-2.109H22.148a1.056 1.056 0 010-2.11h14.766a1.055 1.055 0 000-2.109h-6.328a1.056 1.056 0 010-2.11h10.94c1.64 0 3.184.64 4.345 1.801a8.202 8.202 0 005.838 2.419h.182V40.71z" fill="#fff"/><path d="M18.984 54a1.055 1.055 0 100-2.11 1.055 1.055 0 000 2.11z" fill="#fff"/></svg>