<svg width="29" height="29" fill="none" xmlns="http://www.w3.org/2000/svg"><path d="M28.434 13.934h-.664a3.28 3.28 0 01-2.334-.967 4.405 4.405 0 00-3.136-1.299h-4.175V6.797a2.268 2.268 0 00-2.266-2.266c-.412 0-.799.112-1.132.305v-.305a2.268 2.268 0 00-2.266-2.265c-.413 0-.8.111-1.133.304v-.304A2.268 2.268 0 009.063 0a2.268 2.268 0 00-2.266 2.266v.304a2.25 2.25 0 00-1.133-.304A2.268 2.268 0 003.398 4.53v7.198a3.952 3.952 0 00-2.832-1.194.566.566 0 00-.566.567v9.062a5.12 5.12 0 002.04 4.078l.905.68c.92.69 1.586 2.166 1.586 3.512 0 .312.254.566.567.566h2.548a.566.566 0 000-1.133H5.633c-.141-1.344-.778-2.928-2.008-3.851l-.906-.68a3.985 3.985 0 01-1.586-3.172v-8.44A2.837 2.837 0 013.398 14.5v3.398c0 .313.254.567.567.567A3.97 3.97 0 017.93 22.43a.566.566 0 001.133 0 5.105 5.105 0 00-4.532-5.067V4.531a1.134 1.134 0 012.266 0v7.703a.567.567 0 001.133 0V2.266a1.134 1.134 0 012.266 0v9.968a.566.566 0 001.132 0V4.531a1.134 1.134 0 012.266 0v7.703a.566.566 0 001.133 0V6.797a1.134 1.134 0 012.265 0v4.871h-.566a1.701 1.701 0 00-1.602 2.266h-2.93a1.701 1.701 0 00-1.579 2.325 1.702 1.702 0 00-1.252 1.64c0 .782.531 1.442 1.252 1.639a1.702 1.702 0 001.133 2.266 1.7 1.7 0 001.579 2.325h2.751a9.207 9.207 0 00-1.043 3.738h-1.99a.566.566 0 000 1.133h2.548a.566.566 0 00.566-.566v-.224c0-1.244.353-2.602 1.235-4.081h5.542c.916 0 1.834-.217 2.653-.626a4.82 4.82 0 012.145-.507h1A.566.566 0 0029 22.43V14.5a.566.566 0 00-.566-.566zm-.567 7.93h-.433a5.95 5.95 0 00-2.652.626 4.82 4.82 0 01-2.146.506h-9.609a.567.567 0 010-1.133h4.532a.566.566 0 000-1.133h-5.665a.567.567 0 010-1.132h5.665a.567.567 0 000-1.133h-6.797a.567.567 0 010-1.133h6.797a.566.566 0 000-1.133h-5.665a.567.567 0 010-1.133h7.93a.566.566 0 000-1.132h-3.398a.567.567 0 010-1.133H22.3c.881 0 1.71.343 2.334.967a4.405 4.405 0 003.135 1.298h.097v6.797z" fill="#030091"/></svg>