<svg width="30" height="30" fill="none" xmlns="http://www.w3.org/2000/svg"><path d="M19.963 15a4.963 4.963 0 11-9.927 0 4.963 4.963 0 019.927 0z" fill="#030090"/><path d="M23.382 0H6.618A6.625 6.625 0 000 6.618v16.764A6.625 6.625 0 006.618 30h16.764A6.625 6.625 0 0030 23.382V6.618A6.625 6.625 0 0023.382 0zM15 23.272c-4.561 0-8.272-3.71-8.272-8.272 0-4.561 3.71-8.272 8.272-8.272 4.561 0 8.272 3.71 8.272 8.272 0 4.561-3.71 8.272-8.272 8.272zM24.485 7.17a1.654 1.654 0 110-3.308 1.654 1.654 0 010 3.308z" fill="#030090"/></svg>