<svg width="175" height="64" fill="none" xmlns="http://www.w3.org/2000/svg"><path d="M3.235 51V13.341h17.291c1.84 0 3.537.372 5.092 1.114 1.556.743 2.9 1.75 4.032 3.024a13.218 13.218 0 012.598 4.19c.637 1.556.955 3.13.955 4.72 0 2.157-.477 4.19-1.432 6.1-.955 1.91-2.28 3.465-3.978 4.668L35.75 51H24.4l-6.63-11.563h-4.19V51H3.234zm10.343-20.58h6.524c.637 0 1.22-.353 1.75-1.06.566-.708.85-1.698.85-2.97 0-1.309-.319-2.299-.956-2.97-.636-.708-1.272-1.062-1.909-1.062h-6.259v8.062zM91.336 51V31.163l-6.311 13.95h-5.517l-6.311-13.95V51H62.854V13.341H74.15l8.115 17.716 8.169-17.715h11.244V51H91.336zm43.627-9.017V51h-26.839V13.341h26.361v9.017h-16.018v5.304h13.685v8.38h-13.685v5.941h16.496zM139.772 51V13.341h14.48c4.173 0 7.656.85 10.449 2.546 2.829 1.662 4.951 3.925 6.365 6.79 1.45 2.828 2.175 5.975 2.175 9.44 0 3.82-.796 7.143-2.387 9.972-1.556 2.83-3.766 5.021-6.63 6.577-2.829 1.556-6.153 2.334-9.972 2.334h-14.48zm22.967-18.882c0-2.935-.76-5.287-2.281-7.055-1.485-1.803-3.554-2.705-6.206-2.705h-4.137v19.625h4.137c2.723 0 4.809-.937 6.259-2.811 1.485-1.874 2.228-4.225 2.228-7.054z" fill="#000"/><circle cx="48.5" cy="43.5" r="7.5" fill="#FFE600"/></svg>