<svg width="98" height="36" fill="none" xmlns="http://www.w3.org/2000/svg"><path d="M1.8 28V7.06h9.614a6.49 6.49 0 012.832.619 7.002 7.002 0 012.241 1.68 7.352 7.352 0 011.445 2.33c.354.866.531 1.741.531 2.626 0 1.2-.265 2.33-.796 3.392a6.915 6.915 0 01-2.212 2.595L19.879 28h-6.312L9.88 21.57H7.55V28H1.8zm5.75-11.444h3.628c.354 0 .678-.196.973-.59.315-.393.472-.943.472-1.651 0-.728-.177-1.278-.53-1.652-.354-.393-.708-.59-1.062-.59H7.55v4.483zM50.79 28V16.97l-3.51 7.756h-3.068l-3.51-7.757V28h-5.751V7.06h6.282l4.513 9.85 4.542-9.85h6.252V28h-5.75zm24.258-5.014V28H60.124V7.06h14.659v5.013h-8.907v2.95h7.61v4.66h-7.61v3.303h9.172zM77.723 28V7.06h8.052c2.32 0 4.256.471 5.81 1.415 1.573.924 2.753 2.183 3.54 3.775.805 1.573 1.208 3.323 1.208 5.25 0 2.124-.442 3.972-1.327 5.545a9.047 9.047 0 01-3.687 3.657C89.746 27.567 87.9 28 85.775 28h-8.052zm12.77-10.5c0-1.632-.422-2.94-1.268-3.922-.825-1.003-1.976-1.505-3.45-1.505h-2.301v10.913h2.3c1.515 0 2.675-.521 3.48-1.563.827-1.042 1.24-2.35 1.24-3.923z" fill="#fff"/><ellipse cx="23.78" cy="24.265" rx="3.603" ry="4.044" fill="#FFE600"/></svg>