<svg width="16" height="16" fill="none" xmlns="http://www.w3.org/2000/svg"><g clip-path="url(#clip0)"><path fill="#fff" d="M.667 2.667h14.667v10.667H.667z"/><path d="M14.5 2h-13C.673 2 0 2.673 0 3.5v9c0 .827.673 1.5 1.5 1.5h13c.827 0 1.5-.673 1.5-1.5v-9c0-.827-.673-1.5-1.5-1.5zm0 1c.068 0 .133.014.192.039L8 8.839l-6.692-5.8A.498.498 0 011.5 3h13zm0 10h-13a.5.5 0 01-.5-.5V4.095l6.672 5.783a.5.5 0 00.656 0L15 4.095V12.5a.5.5 0 01-.5.5z" fill="#030091"/></g><defs><clipPath id="clip0"><path fill="#fff" d="M0 0h16v16H0z"/></clipPath></defs></svg>