<svg width="17" height="17" fill="none" xmlns="http://www.w3.org/2000/svg"><path d="M8.5 2.086c-4.694 0-8.5 3.842-8.5 8.582 0 2.57 1.109 4.245 1.109 4.245l14.779.001S17 13.082 17 10.667c0-4.739-3.806-8.58-8.5-8.58zm6.764 11.783l-13.501-.006s-.72-1.363-.72-3.223c0-4.153 3.352-7.52 7.486-7.52 4.133 0 7.485 3.367 7.485 7.52 0 1.881-.75 3.229-.75 3.229z" fill="#000" fill-opacity=".5"/><path d="M10.902 4.365h-.106L8.528 8.808 6.18 4.328l-3.216 8.094h-.83v.65h4.552v-.65h-.903l.903-2.53 1.843 3.18 1.771-3.18.903 2.53H10.3v.65h4.517v-.65h-.783l-3.13-8.057z" fill="#000" fill-opacity=".5"/></svg>