<svg width="13" height="13" fill="none" xmlns="http://www.w3.org/2000/svg"><path d="M7.148 3.916H5.586v3.047h1.562c.819 0 1.485-.666 1.485-1.484V5.4c0-.818-.666-1.484-1.485-1.484z" fill="#006DD2"/><path d="M11.096 1.904A6.457 6.457 0 006.5 0a6.458 6.458 0 00-4.596 1.904A6.458 6.458 0 000 6.5c0 1.736.676 3.368 1.904 4.596A6.457 6.457 0 006.5 13a6.457 6.457 0 004.596-1.904A6.457 6.457 0 0013 6.5a6.458 6.458 0 00-1.904-4.596zM9.395 5.479a2.249 2.249 0 01-2.246 2.246H5.586v2.12h-.762v-6.69H7.15A2.249 2.249 0 019.395 5.4v.079z" fill="#006DD2"/></svg>