<svg width="14" height="15" fill="none" xmlns="http://www.w3.org/2000/svg"><path d="M9.443 14.111c-.424 0-.845-.08-1.256-.24a13.315 13.315 0 01-4.863-3.33 14.554 14.554 0 01-3.1-5.223 4.175 4.175 0 01.448-3.622A3.83 3.83 0 011.955.47 3.46 3.46 0 013.706 0c.194 0 .361.145.402.349l.644 3.23a.463.463 0 01-.111.404L3.54 5.165c1.039 2.219 2.724 4.029 4.79 5.144l1.1-1.182a.392.392 0 01.377-.12l3.007.693c.19.043.324.223.324.43 0 .67-.147 1.302-.437 1.882a3.931 3.931 0 01-1.142 1.377 3.577 3.577 0 01-1.586.68 3.392 3.392 0 01-.53.042z" fill="#fff"/></svg>