<svg width="22" height="22" fill="none" xmlns="http://www.w3.org/2000/svg"><path d="M20.89 20.36l-5.826-5.834c1.486-1.436 2.407-3.414 2.407-5.596C17.47 4.557 13.777 1 9.235 1 4.695 1 1 4.557 1 8.93c0 4.372 3.694 7.93 8.235 7.93a8.391 8.391 0 005.249-1.825l5.841 5.85c.077.076.18.115.283.115a.4.4 0 00.272-.105.368.368 0 00.01-.534zM9.236 16.105c-4.108 0-7.45-3.218-7.45-7.174 0-3.957 3.342-7.175 7.45-7.175 4.109 0 7.451 3.218 7.451 7.175 0 3.956-3.342 7.174-7.45 7.174z" fill="#030090" stroke="#fff" stroke-width="2"/></svg>