<svg width="118" height="117" fill="none" xmlns="http://www.w3.org/2000/svg"><path d="M59 117c7.748 0 15.42-1.513 22.578-4.453a59.033 59.033 0 0019.141-12.681 58.465 58.465 0 0012.79-18.979A58.07 58.07 0 00118 58.5a58.07 58.07 0 00-4.491-22.387 58.466 58.466 0 00-12.79-18.979 59.033 59.033 0 00-19.14-12.681A59.438 59.438 0 0059 0v8.85a50.448 50.448 0 0119.163 3.779 50.106 50.106 0 0116.245 10.763A49.618 49.618 0 01105.263 39.5a49.276 49.276 0 013.812 19c0 6.52-1.295 12.977-3.812 19a49.616 49.616 0 01-10.855 16.108 50.102 50.102 0 01-16.245 10.763A50.45 50.45 0 0159 108.15V117z" fill="#fff"/><circle cx="61" cy="58.623" r="43" fill="#fff"/></svg>