<svg width="118" height="117" fill="none" xmlns="http://www.w3.org/2000/svg"><path d="M0 58.5C0 70.07 3.46 81.38 9.943 91a58.897 58.897 0 0026.479 21.547 59.468 59.468 0 0034.088 3.329 59.155 59.155 0 0030.209-16.01 58.34 58.34 0 0016.147-29.953 58.04 58.04 0 00-3.357-33.8 58.614 58.614 0 00-21.73-26.254A59.36 59.36 0 0059 0v8.85a50.38 50.38 0 0127.82 8.367A49.743 49.743 0 01105.263 39.5a49.261 49.261 0 012.85 28.686 49.524 49.524 0 01-13.705 25.422 50.202 50.202 0 01-25.639 13.588 50.47 50.47 0 01-28.932-2.825 49.986 49.986 0 01-22.473-18.287A49.351 49.351 0 018.925 58.5H0z" fill="#fff"/><circle cx="59" cy="58.623" r="43" fill="#fff"/></svg>