<svg width="30" height="30" fill="none" xmlns="http://www.w3.org/2000/svg"><path d="M24.85 0H4.78C2.355 0 0 1.643 0 5.643v19.786C0 29.143 2.937 30 3.994 30h22.377c1.947 0 3.944-1.5 3.587-4.571V5.643c0-3.73-2.406-5.643-5.107-5.643zm0 18.28c.548.56 1.736 1.497 1.52 2.452-.198.876-1.504.556-2.773.607-1.448.062-2.306.094-3.177-.607-.41-.333-.651-.726-1.045-1.167-.357-.398-.807-1.111-1.42-1.084-1.102.055-.757 1.592-1.148 2.64-6.122.966-8.581-2.822-10.75-6.497-1.05-1.78-2.569-5.603-2.569-5.603l4.33-.015s1.389 2.53 1.757 3.182c.312.554.657.995 1.012 1.49.298.41.77 1.215 1.286 1.15.839-.108.991-3.369.471-4.461-.207-.443-.704-.597-1.218-.747.174-1.097 4.856-1.326 5.613-.475 1.1 1.237-.76 4.679.744 5.683 2.114-1.11 3.92-5.755 3.92-5.755l5.07.032s-.793 2.511-1.624 3.624c-.484.653-2.091 2.105-2.028 3.182.051.854 1.357 1.683 2.03 2.37z" fill="#030090"/></svg>