<svg width="12" height="11" fill="none" xmlns="http://www.w3.org/2000/svg"><path d="M.244 0C.11 0 0 .103 0 .23v1.833c0 .126.11.229.244.229 4.988 0 9.045 3.803 9.045 8.479 0 .126.11.229.244.229h1.956c.135 0 .244-.103.244-.23C11.733 4.833 6.58 0 .244 0z" fill="#3633D9"/><path d="M.244 3.667c-.134 0-.244.102-.244.229v1.833c0 .126.11.23.244.23 2.831 0 5.134 2.158 5.134 4.812 0 .126.11.229.244.229h1.956c.135 0 .244-.103.244-.23 0-3.917-3.399-7.103-7.578-7.103z" fill="#3633D9"/><path d="M1.711 11c.945 0 1.711-.718 1.711-1.604 0-.886-.766-1.605-1.71-1.605C.765 7.792 0 8.51 0 9.396S.766 11 1.711 11z" fill="#3633D9"/></svg>