<svg width="1186" height="934" fill="none" xmlns="http://www.w3.org/2000/svg"><path d="M838.381 470.918c19.083-22.594 15.142-57.078-8.5-74.382L503.584 157.712c-15.485-11.334-35.972-12.483-52.636-2.953L170.132 315.367c-20.014 11.447-29.784 35.49-23.6 58.081l93.672 342.214c5.441 19.876 22.108 34.326 42.116 36.514l265.914 29.073c16.08 1.759 32.005-4.69 42.621-17.258l247.526-293.073z" fill="#FFE500" fill-opacity=".8"/><path d="M923.863 516.681c27.011-11.377 57.5 3.251 65.852 31.595l37.825 128.376c5.49 18.611-.06 38.904-14.24 52.136l-76.006 70.897c-17.117 15.967-42.639 17.885-61.538 4.625l-93.64-65.702c-16.417-11.519-24.295-32.08-19.955-52.083l18.639-85.901c3.539-16.314 14.722-29.887 29.885-36.274l113.178-47.669z" fill="#030090"/><path d="M1010.36 127.738c27.01-11.377 57.5 3.252 65.86 31.596l38.79 131.647c5.48 18.611-.06 38.904-14.25 52.136l-77.99 72.75c-17.12 15.967-42.637 17.885-61.536 4.625l-96.006-67.362c-16.418-11.519-24.295-32.08-19.955-52.083l19.125-88.144c3.539-16.313 14.722-29.886 29.886-36.273l116.076-48.892z" fill="#FFEA33"/><path d="M290.654 263.571c27.011-11.376 57.5 3.252 65.853 31.596l12.082 41.002c5.484 18.611-.061 38.904-14.246 52.136l-22.961 21.418c-17.118 15.967-42.639 17.885-61.538 4.625l-30.448-21.364c-16.418-11.519-24.296-32.08-19.956-52.083l5.648-26.028c3.54-16.313 14.723-29.887 29.886-36.273l35.68-15.029zm571.658-27.899c27.011-11.377 57.501 3.252 65.853 31.595l12.082 41.002c5.484 18.612-.061 38.905-14.246 52.136l-22.961 21.419c-17.117 15.967-42.639 17.885-61.538 4.625l-30.448-21.364c-16.418-11.519-24.295-32.08-19.955-52.083l5.647-26.028c3.54-16.314 14.723-29.887 29.886-36.274l35.68-15.028z" fill="#030090"/></svg>